# xmcd CD database file
#
# Track frame offsets:
#	150
#	28678
#	62188
#	96246
#	111945
#	152660
#	185441
#	206110
#	238967
#
# Disc length: 3588 seconds
#
# Revision: 0
# Processed by: cddbd v1.5.1PL2 Copyright (c) Steve Scherf et al.
# Submitted via: CDex 1.50Beta7
#
DISCID=800e0209
DTITLE=JuliusTolentino - Just the Beginning
DYEAR=2005
DGENRE=Jazz
TTITLE0=Just the Beginning
TTITLE1=Domingo
TTITLE2=I Want to Talk About You
TTITLE3=Pharaoh's Curse
TTITLE4=High Drama
TTITLE5=Quadrangle
TTITLE6=Shell Joy
TTITLE7=Make Someone Happy
TTITLE8=Letter to Illinois
EXTD=YEAR: 2005
EXTT0=
EXTT1=
EXTT2=
EXTT3=
EXTT4=
EXTT5=
EXTT6=
EXTT7=
EXTT8=
PLAYORDER=
